<svg width="132" height="69" viewBox="0 0 132 69" fill="none" xmlns="http://www.w3.org/2000/svg">
<path d="M34 45C34 57.1503 48.103 67 65.5 67C82.897 67 97 57.1503 97 45" stroke="white" stroke-width="4"/>
<path d="M97 24C97 11.8497 82.897 2 65.5 2C48.103 2 34 11.8497 34 24" stroke="white" stroke-width="4"/>
<path d="M4.44675 32.5941C4.78275 32.1261 5.23275 31.7721 5.79675 31.5321C6.37275 31.2921 7.03275 31.1721 7.77675 31.1721V33.7641C7.46475 33.7401 7.25475 33.7281 7.14675 33.7281C6.34275 33.7281 5.71275 33.9561 5.25675 34.4121C4.80075 34.8561 4.57275 35.5281 4.57275 36.4281V41.0001H1.76475V31.3161H4.44675V32.5941ZM18.8445 36.1941C18.8445 36.2301 18.8265 36.4821 18.7905 36.9501H11.4645C11.5965 37.5501 11.9085 38.0241 12.4005 38.3721C12.8925 38.7201 13.5045 38.8941 14.2365 38.8941C14.7405 38.8941 15.1845 38.8221 15.5685 38.6781C15.9645 38.5221 16.3305 38.2821 16.6665 37.9581L18.1605 39.5781C17.2485 40.6221 15.9165 41.1441 14.1645 41.1441C13.0725 41.1441 12.1065 40.9341 11.2665 40.5141C10.4265 40.0821 9.7785 39.4881 9.3225 38.7321C8.8665 37.9761 8.6385 37.1181 8.6385 36.1581C8.6385 35.2101 8.8605 34.3581 9.3045 33.6021C9.7605 32.8341 10.3785 32.2401 11.1585 31.8201C11.9505 31.3881 12.8325 31.1721 13.8045 31.1721C14.7525 31.1721 15.6105 31.3761 16.3785 31.7841C17.1465 32.1921 17.7465 32.7801 18.1785 33.5481C18.6225 34.3041 18.8445 35.1861 18.8445 36.1941ZM13.8225 33.2961C13.1865 33.2961 12.6525 33.4761 12.2205 33.8361C11.7885 34.1961 11.5245 34.6881 11.4285 35.3121H16.1985C16.1025 34.7001 15.8385 34.2141 15.4065 33.8541C14.9745 33.4821 14.4465 33.2961 13.8225 33.2961ZM23.972 41.1441C23.168 41.1441 22.382 41.0481 21.614 40.8561C20.846 40.6521 20.234 40.4001 19.778 40.1001L20.714 38.0841C21.146 38.3601 21.668 38.5881 22.28 38.7681C22.892 38.9361 23.492 39.0201 24.08 39.0201C25.268 39.0201 25.862 38.7261 25.862 38.1381C25.862 37.8621 25.7 37.6641 25.376 37.5441C25.052 37.4241 24.554 37.3221 23.882 37.2381C23.09 37.1181 22.436 36.9801 21.92 36.8241C21.404 36.6681 20.954 36.3921 20.57 35.9961C20.198 35.6001 20.012 35.0361 20.012 34.3041C20.012 33.6921 20.186 33.1521 20.534 32.6841C20.894 32.2041 21.41 31.8321 22.082 31.5681C22.766 31.3041 23.57 31.1721 24.494 31.1721C25.178 31.1721 25.856 31.2501 26.528 31.4061C27.212 31.5501 27.776 31.7541 28.22 32.0181L27.284 34.0161C26.432 33.5361 25.502 33.2961 24.494 33.2961C23.894 33.2961 23.444 33.3801 23.144 33.5481C22.844 33.7161 22.694 33.9321 22.694 34.1961C22.694 34.4961 22.856 34.7061 23.18 34.8261C23.504 34.9461 24.02 35.0601 24.728 35.1681C25.52 35.3001 26.168 35.4441 26.672 35.6001C27.176 35.7441 27.614 36.0141 27.986 36.4101C28.358 36.8061 28.544 37.3581 28.544 38.0661C28.544 38.6661 28.364 39.2001 28.004 39.6681C27.644 40.1361 27.116 40.5021 26.42 40.7661C25.736 41.0181 24.92 41.1441 23.972 41.1441ZM36.5225 40.5321C36.2465 40.7361 35.9045 40.8921 35.4965 41.0001C35.1005 41.0961 34.6805 41.1441 34.2365 41.1441C33.0845 41.1441 32.1905 40.8501 31.5545 40.2621C30.9305 39.6741 30.6185 38.8101 30.6185 37.6701V33.6921H29.1245V31.5321H30.6185V29.1741H33.4265V31.5321H35.8385V33.6921H33.4265V37.6341C33.4265 38.0421 33.5285 38.3601 33.7325 38.5881C33.9485 38.8041 34.2485 38.9121 34.6325 38.9121C35.0765 38.9121 35.4545 38.7921 35.7665 38.5521L36.5225 40.5321ZM42.0047 31.1721C43.5047 31.1721 44.6567 31.5321 45.4607 32.2521C46.2647 32.9601 46.6667 34.0341 46.6667 35.4741V41.0001H44.0387V39.7941C43.5107 40.6941 42.5267 41.1441 41.0867 41.1441C40.3427 41.1441 39.6947 41.0181 39.1427 40.7661C38.6027 40.5141 38.1887 40.1661 37.9007 39.7221C37.6127 39.2781 37.4687 38.7741 37.4687 38.2101C37.4687 37.3101 37.8047 36.6021 38.4767 36.0861C39.1607 35.5701 40.2107 35.3121 41.6267 35.3121H43.8587C43.8587 34.7001 43.6727 34.2321 43.3007 33.9081C42.9287 33.5721 42.3707 33.4041 41.6267 33.4041C41.1107 33.4041 40.6007 33.4881 40.0967 33.6561C39.6047 33.8121 39.1847 34.0281 38.8367 34.3041L37.8287 32.3421C38.3567 31.9701 38.9867 31.6821 39.7187 31.4781C40.4627 31.2741 41.2247 31.1721 42.0047 31.1721ZM41.7887 39.2541C42.2687 39.2541 42.6947 39.1461 43.0667 38.9301C43.4387 38.7021 43.7027 38.3721 43.8587 37.9401V36.9501H41.9327C40.7807 36.9501 40.2047 37.3281 40.2047 38.0841C40.2047 38.4441 40.3427 38.7321 40.6187 38.9481C40.9067 39.1521 41.2967 39.2541 41.7887 39.2541ZM54.9321 31.1721C55.8321 31.1721 56.6481 31.3821 57.3801 31.8021C58.1241 32.2101 58.7061 32.7921 59.1261 33.5481C59.5461 34.2921 59.7561 35.1621 59.7561 36.1581C59.7561 37.1541 59.5461 38.0301 59.1261 38.7861C58.7061 39.5301 58.1241 40.1121 57.3801 40.5321C56.6481 40.9401 55.8321 41.1441 54.9321 41.1441C53.6961 41.1441 52.7241 40.7541 52.0161 39.9741V44.4921H49.2081V31.3161H51.8901V32.4321C52.5861 31.5921 53.6001 31.1721 54.9321 31.1721ZM54.4461 38.8401C55.1661 38.8401 55.7541 38.6001 56.2101 38.1201C56.6781 37.6281 56.9121 36.9741 56.9121 36.1581C56.9121 35.3421 56.6781 34.6941 56.2101 34.2141C55.7541 33.7221 55.1661 33.4761 54.4461 33.4761C53.7261 33.4761 53.1321 33.7221 52.6641 34.2141C52.2081 34.6941 51.9801 35.3421 51.9801 36.1581C51.9801 36.9741 52.2081 37.6281 52.6641 38.1201C53.1321 38.6001 53.7261 38.8401 54.4461 38.8401ZM61.6358 31.3161H64.4438V41.0001H61.6358V31.3161ZM63.0398 29.9661C62.5238 29.9661 62.1038 29.8161 61.7798 29.5161C61.4558 29.2161 61.2938 28.8441 61.2938 28.4001C61.2938 27.9561 61.4558 27.5841 61.7798 27.2841C62.1038 26.9841 62.5238 26.8341 63.0398 26.8341C63.5558 26.8341 63.9758 26.9781 64.2998 27.2661C64.6238 27.5541 64.7858 27.9141 64.7858 28.3461C64.7858 28.8141 64.6238 29.2041 64.2998 29.5161C63.9758 29.8161 63.5558 29.9661 63.0398 29.9661ZM77.8716 31.1721C78.7716 31.1721 79.5876 31.3821 80.3196 31.8021C81.0636 32.2101 81.6456 32.7921 82.0656 33.5481C82.4856 34.2921 82.6956 35.1621 82.6956 36.1581C82.6956 37.1541 82.4856 38.0301 82.0656 38.7861C81.6456 39.5301 81.0636 40.1121 80.3196 40.5321C79.5876 40.9401 78.7716 41.1441 77.8716 41.1441C76.6356 41.1441 75.6636 40.7541 74.9556 39.9741V44.4921H72.1476V31.3161H74.8296V32.4321C75.5256 31.5921 76.5396 31.1721 77.8716 31.1721ZM77.3856 38.8401C78.1056 38.8401 78.6936 38.6001 79.1496 38.1201C79.6176 37.6281 79.8516 36.9741 79.8516 36.1581C79.8516 35.3421 79.6176 34.6941 79.1496 34.2141C78.6936 33.7221 78.1056 33.4761 77.3856 33.4761C76.6656 33.4761 76.0716 33.7221 75.6036 34.2141C75.1476 34.6941 74.9196 35.3421 74.9196 36.1581C74.9196 36.9741 75.1476 37.6281 75.6036 38.1201C76.0716 38.6001 76.6656 38.8401 77.3856 38.8401ZM84.5753 27.6441H87.3833V41.0001H84.5753V27.6441ZM93.8954 31.1721C95.3954 31.1721 96.5474 31.5321 97.3514 32.2521C98.1554 32.9601 98.5574 34.0341 98.5574 35.4741V41.0001H95.9294V39.7941C95.4014 40.6941 94.4174 41.1441 92.9774 41.1441C92.2334 41.1441 91.5854 41.0181 91.0334 40.7661C90.4934 40.5141 90.0794 40.1661 89.7914 39.7221C89.5034 39.2781 89.3594 38.7741 89.3594 38.2101C89.3594 37.3101 89.6954 36.6021 90.3674 36.0861C91.0514 35.5701 92.1014 35.3121 93.5174 35.3121H95.7494C95.7494 34.7001 95.5634 34.2321 95.1914 33.9081C94.8194 33.5721 94.2614 33.4041 93.5174 33.4041C93.0014 33.4041 92.4914 33.4881 91.9874 33.6561C91.4954 33.8121 91.0754 34.0281 90.7274 34.3041L89.7194 32.3421C90.2474 31.9701 90.8774 31.6821 91.6094 31.4781C92.3534 31.2741 93.1154 31.1721 93.8954 31.1721ZM93.6794 39.2541C94.1594 39.2541 94.5854 39.1461 94.9574 38.9301C95.3294 38.7021 95.5934 38.3721 95.7494 37.9401V36.9501H93.8234C92.6714 36.9501 92.0954 37.3281 92.0954 38.0841C92.0954 38.4441 92.2334 38.7321 92.5094 38.9481C92.7974 39.1521 93.1874 39.2541 93.6794 39.2541ZM106.985 31.1721C108.185 31.1721 109.151 31.5321 109.883 32.2521C110.627 32.9721 110.999 34.0401 110.999 35.4561V41.0001H108.191V35.8881C108.191 35.1201 108.023 34.5501 107.687 34.1781C107.351 33.7941 106.865 33.6021 106.229 33.6021C105.521 33.6021 104.957 33.8241 104.537 34.2681C104.117 34.7001 103.907 35.3481 103.907 36.2121V41.0001H101.099V31.3161H103.781V32.4501C104.153 32.0421 104.615 31.7301 105.167 31.5141C105.719 31.2861 106.325 31.1721 106.985 31.1721ZM123.136 36.1941C123.136 36.2301 123.118 36.4821 123.082 36.9501H115.756C115.888 37.5501 116.2 38.0241 116.692 38.3721C117.184 38.7201 117.796 38.8941 118.528 38.8941C119.032 38.8941 119.476 38.8221 119.86 38.6781C120.256 38.5221 120.622 38.2821 120.958 37.9581L122.452 39.5781C121.54 40.6221 120.208 41.1441 118.456 41.1441C117.364 41.1441 116.398 40.9341 115.558 40.5141C114.718 40.0821 114.07 39.4881 113.614 38.7321C113.158 37.9761 112.93 37.1181 112.93 36.1581C112.93 35.2101 113.152 34.3581 113.596 33.6021C114.052 32.8341 114.67 32.2401 115.45 31.8201C116.242 31.3881 117.124 31.1721 118.096 31.1721C119.044 31.1721 119.902 31.3761 120.67 31.7841C121.438 32.1921 122.038 32.7801 122.47 33.5481C122.914 34.3041 123.136 35.1861 123.136 36.1941ZM118.114 33.2961C117.478 33.2961 116.944 33.4761 116.512 33.8361C116.08 34.1961 115.816 34.6881 115.72 35.3121H120.49C120.394 34.7001 120.13 34.2141 119.698 33.8541C119.266 33.4821 118.738 33.2961 118.114 33.2961ZM131.251 40.5321C130.975 40.7361 130.633 40.8921 130.225 41.0001C129.829 41.0961 129.409 41.1441 128.965 41.1441C127.813 41.1441 126.919 40.8501 126.283 40.2621C125.659 39.6741 125.347 38.8101 125.347 37.6701V33.6921H123.853V31.5321H125.347V29.1741H128.155V31.5321H130.567V33.6921H128.155V37.6341C128.155 38.0421 128.257 38.3601 128.461 38.5881C128.677 38.8041 128.977 38.9121 129.361 38.9121C129.805 38.9121 130.183 38.7921 130.495 38.5521L131.251 40.5321Z" fill="#ECECEC"/>
</svg>
